<svg xmlns="http://www.w3.org/2000/svg" viewBox="0 0 64 64" width="64" height="64">
  <defs>
    <linearGradient id="grad1" x1="0%" y1="0%" x2="100%" y2="100%">
      <stop offset="0%" style="stop-color:#3b82f6;stop-opacity:1" />
      <stop offset="100%" style="stop-color:#8b5cf6;stop-opacity:1" />
    </linearGradient>
  </defs>
  
  <circle cx="32" cy="32" r="30" fill="url(#grad1)" stroke="#ffffff" stroke-width="2"/>
  
  <g fill="none" stroke="#ffffff" stroke-width="2" stroke-linecap="round">
    <path d="M 32 20 Q 28 24 28 28 Q 28 32 32 32 Q 36 32 36 28 Q 36 24 32 20" />
    <path d="M 24 18 Q 20 22 20 26" />
    <path d="M 40 18 Q 44 22 44 26" />
    <path d="M 22 36 Q 20 40 22 44" />
    <path d="M 42 36 Q 44 40 42 44" />
    <path d="M 18 30 Q 16 32 18 34" />
    <path d="M 46 30 Q 48 32 46 34" />
    <path d="M 28 46 Q 32 48 36 46" />
  </g>
  
  <line x1="16" y1="16" x2="48" y2="48" stroke="#ffffff" stroke-width="1.5" stroke-opacity="0.3" stroke-dasharray="4 4">
    <animate attributeName="opacity" values="0.3;0.6;0.3" dur="2s" repeatCount="indefinite"/>
  </line>
</svg>
